{"title":"Heartland - 9x11 - Making The Grade (1080p)","uid":13251346,"size":1822639126,"categoryP":"video","categoryS":"hd___tv_shows","magnet":"?xt=urn:btih:ac20802f8b54c3112cc131e45047eca2b2479bb1&amp;dn=Heartland+-+9x11+-+Making+The+Grade+%281080p%29&amp;tr=udp%3A%2F%2Ftracker.leechers-paradise.org%3A6969&amp;tr=udp%3A%2F%2Fzer0day.ch%3A1337&amp;tr=udp%3A%2F%2Fopen.demonii.com%3A1337&amp;tr=udp%3A%2F%2Ftracker.coppersurfer.tk%3A6969&amp;tr=udp%3A%2F%2Fexodus.desync.com%3A6969","seeders":0,"leechers":0,"uploader":"DJEvergreen","files":1,"time":1453171743,"description":"Downloaded from iTunes.\r\n\r\nDescription: Ty gets roped into helping Jack and Tim on a cattle drive but an unforeseen accident jeopardizes their plans.\r\n\r\nAired: January 17, 2016\r\n\r\nScreencap: \nhttps://yuq.me/users/53/486/Xckw4DQLzB.jpg\r\n\r\nMediaInfo:\r\n\r\nGeneral\r\nFormat : MPEG-4\r\nFormat profile : Base Media / Version 2\r\nCodec ID : mp42\r\nFile size : 1.70 GiB\r\nDuration : 44mn 10s\r\nOverall bit rate mode : Variable\r\nOverall bit rate : 5 502 Kbps\r\nEncoded date : UTC 2016-01-19 01:23:59\r\nTagged date : UTC 2016-01-19 01:26:58\r\n\r\nVideo\r\nID : 3\r\nFormat : AVC\r\nFormat/Info : Advanced Video Codec\r\nFormat profile :   \r\nFormat settings, CABAC : Yes\r\nFormat settings, ReFrames : 4 frames\r\nCodec ID : avc1\r\nCodec ID/Info : Advanced Video Coding\r\nDuration : 44mn 9s\r\nDuration_LastFrame : -25ms\r\nBit rate : 4 989 Kbps\r\nWidth : 1 920 pixels\r\nHeight : 1 080 pixels\r\nDisplay aspect ratio : 16:9\r\nFrame rate mode : Constant\r\nFrame rate : 23.976 fps\r\nColor space : YUV\r\nChroma subsampling : 4:2:0\r\nBit depth : 8 bits\r\nScan type : Progressive\r\nBits/(Pixel*Frame) : 0.100\r\nStream size : 1.54 GiB (91%)\r\nLanguage : English\r\nEncoded date : UTC 2016-01-19 01:26:13\r\nTagged date : UTC 2016-01-19 01:26:57\r\nColor range : Limited\r\nColor primaries : BT.709\r\nTransfer characteristics : BT.709\r\nMatrix coefficients : BT.709\r\n\r\nAudio #1\r\nID : 1\r\nFormat : AAC\r\nFormat/Info : Advanced Audio Codec\r\nFormat profile : LC\r\nCodec ID : 40\r\nDuration : 44mn 9s\r\nDuration_LastFrame : -5ms\r\nBit rate mode : Variable\r\nBit rate : 125 Kbps\r\nMaximum bit rate : 190 Kbps\r\nChannel(s) : 2 channels\r\nChannel positions : Front: L R\r\nSampling rate : 48.0 KHz\r\nCompression mode : Lossy\r\nStream size : 39.4 MiB (2%)\r\nLanguage : English\r\nEncoded date : UTC 2016-01-19 01:24:01\r\nTagged date : UTC 2016-01-19 01:25:20\r\n\r\nAudio #2\r\nID : 2\r\nFormat : AC-3\r\nFormat/Info : Audio Coding 3\r\nMode extension : CM (complete main)\r\nFormat settings, Endianness : Big\r\nCodec ID : ac-3\r\nDuration : 44mn 10s\r\nDuration_LastFrame : -16ms\r\nBit rate mode : Constant\r\nBit rate : 384 Kbps\r\nChannel(s) : 6 channels\r\nChannel positions : Front: L C R, Side: L R, LFE\r\nSampling rate : 48.0 KHz\r\nBit depth : 16 bits\r\nCompression mode : Lossy\r\nStream size : 121 MiB (7%)\r\nLanguage : English\r\nEncoded date : UTC 2016-01-19 01:25:20\r\nTagged date : UTC 2016-01-19 01:26:13","torrent":{"xt":"urn:btih:ac20802f8b54c3112cc131e45047eca2b2479bb1","amp;dn":"Heartland+-+9x11+-+Making+The+Grade+%281080p%29","amp;tr":["udp%3A%2F%2Ftracker.leechers-paradise.org%3A6969","udp%3A%2F%2Fzer0day.ch%3A1337","udp%3A%2F%2Fopen.demonii.com%3A1337","udp%3A%2F%2Ftracker.coppersurfer.tk%3A6969","udp%3A%2F%2Fexodus.desync.com%3A6969"],"infoHash":"ac20802f8b54c3112cc131e45047eca2b2479bb1","infoHashBuffer":{"type":"Buffer","data":[172,32,128,47,139,84,195,17,44,193,49,228,80,71,236,162,178,71,155,177]},"announce":[],"urlList":[]}}